:FULLY-SPECIFIED
:FORCE-ALL-JOINTS-BE-3DOF
:DEGREES
883
root 3.85195 16.5305 30.5312 -10.8246 23.6768 359.35
lfemur -15.8095 19.9983 -19.0116
ltibia 40.4913 0 0
lfoot -12.9326 0.0690648 0
ltoes -1.37978 0 0
rfemur -80.7132 -24.4467 36.5168
rtibia 101.126 0 0
rfoot 19.264 26.205 0
rtoes -8.14353 0 0
lowerback 15.0059 -4.01209 -6.64789
upperback 4.97444 -6.28636 -2.38034
thorax -2.64296 -3.11384 2.26165
lowerneck -7.71871 -3.24517 1.71638
upperneck 4.65939 -4.84264 4.94114
head 2.93726 -2.18998 1.06474
lclavicle -3.12092e-14 -4.77083e-15 0
lhumerus -33.0312 -40.5423 88.3441
lradius 60.5977 0 0
lwrist 19.6497 0 0
lhand 25.8347 11.8689 0
lfingers 7.12502 0 0
lthumb 49.9264 33.1302 0
rclavicle -3.12092e-14 -4.77083e-15 0
rhumerus -49.2556 -29.6742 -46.9493
rradius 72.2992 0 0
rwrist -23.3678 0 0
rhand -47.7649 -54.4874 0
rfingers 7.12502 0 0
rthumb -20.4424 -803.431 0
884
root 3.83103 16.5368 30.6022 -10.2267 24.5521 -0.980266
lfemur -16.6282 21.2125 -18.7848
ltibia 40.8064 -0 0
lfoot -13.1103 0.756462 0.00376453
ltoes -1.70577 0 0
rfemur -79.0498 -25.5519 35.0085
rtibia 103.952 -0 0
rfoot 19.921 25.8742 -0.0655389
rtoes -6.81739 0 0
lowerback 14.3558 -4.23055 -6.56881
upperback 4.70932 -6.52409 -2.23961
thorax -2.5452 -3.23192 2.3586
lowerneck -7.73379 -3.4355 1.56575
upperneck 4.8296 -5.09775 5.02894
head 3.01058 -2.31147 1.10581
lclavicle -3.46423e-14 -3.54219e-15 -3.75312e-32
lhumerus -33.7082 -41.4098 89.6532
lradius 60.4508 -0 0
lwrist 18.7472 0 0
lhand 26.4093 12.0515 -0.0181666
lfingers 7.12502 -0 0
lthumb 50.4575 33.0751 -0.00458174
rclavicle -3.46423e-14 -3.54219e-15 -3.75312e-32
rhumerus -49.1541 -29.3111 -48.5209
rradius 74.6464 -0 0
rwrist -24.0708 0 0
rhand -49.2858 -56.7288 -0.556464
rfingers 7.12502 -0 0
rthumb -21.9132 -85.6701 -0.526176
885
root 3.80931 16.543 30.6765 -9.58517 25.3967 -1.25849
lfemur -17.4849 22.5125 -18.6437
ltibia 41.0872 -0 0
lfoot -13.3328 1.0172 0.00720004
ltoes -1.78744 0 0
rfemur -76.7752 -26.7602 33.236
rtibia 106.417 -0 0
rfoot 20.169 25.0167 -0.100367
rtoes -6.26811 0 0
lowerback 13.6584 -4.42033 -6.56322
upperback 4.40941 -6.73497 -2.10045
thorax -2.45124 -3.33623 2.47966
lowerneck -7.7434 -3.6464 1.40737
upperneck 4.95729 -5.37676 5.10898
head 3.07002 -2.44657 1.14433
lclavicle -4.02813e-14 -2.35759e-15 -2.81053e-31
lhumerus -34.6401 -42.2091 91.0861
lradius 60.5058 -0 0
lwrist 17.7714 0 0
lhand 26.7609 12.0529 -0.0271417
lfingers 7.12502 -0 0
lthumb 50.7812 32.9213 -0.0071236
rclavicle -4.02813e-14 -2.35759e-15 -2.81053e-31
rhumerus -49.0471 -28.5809 -50.3786
rradius 77.1697 -0 0
rwrist -24.4094 0 0
rhand -50.0818 -58.6427 -1.02102
rfingers 7.12502 -0 0
rthumb -22.6841 -87.6248 -0.971508
886
root 3.78764 16.5484 30.7528 -8.91659 26.187 -1.48459
lfemur -18.3638 23.8318 -18.5762
ltibia 41.3541 -0 0
lfoot -13.5854 0.96924 0.00907251
ltoes -1.67765 0 0
rfemur -73.9892 -27.942 31.206
rtibia 108.491 -0 0
rfoot 20.1015 23.7071 -0.108328
rtoes -6.17746 0 0
lowerback 12.9302 -4.58109 -6.60176
upperback 4.08753 -6.91292 -1.96642
thorax -2.36058 -3.42413 2.60789
lowerneck -7.74705 -3.87165 1.24113
upperneck 5.04922 -5.67145 5.17944
head 3.11738 -2.59108 1.18021
lclavicle -4.70035e-14 -1.39091e-15 -6.68097e-31
lhumerus -35.7706 -42.9198 92.6121
lradius 60.7055 -0 0
lwrist 16.7735 0 0
lhand 26.9506 11.9431 -0.0278198
lfingers 7.12502 -0 0
lthumb 50.9541 32.7161 -0.00771914
rclavicle -4.70035e-14 -1.39091e-15 -6.68097e-31
rhumerus -48.9293 -27.5403 -52.4608
rradius 79.8107 -0 0
rwrist -24.4234 0 0
rhand -50.1783 -60.1149 -1.31826
rfingers 7.12502 -0 0
rthumb -22.7791 -89.1649 -1.26129
887
root 3.76685 16.5524 30.8297 -8.23799 26.8991 -1.65967
lfemur -19.2477 25.1041 -18.5672
ltibia 41.6274 -0 0
lfoot -13.8535 0.730523 0.00855425
ltoes -1.42928 0 0
rfemur -70.8081 -28.9716 28.9454
rtibia 110.141 -0 0
rfoot 19.8114 22.0195 -0.0975608
rtoes -6.22723 0 0
lowerback 12.1876 -4.71186 -6.65522
upperback 3.75657 -7.05201 -1.84126
thorax -2.27264 -3.49294 2.72637
lowerneck -7.74425 -4.105 1.06695
upperneck 5.11216 -5.97367 5.23847
head 3.15448 -2.74083 1.21336
lclavicle -5.36861e-14 -8.15997e-16 -1.04758e-30
lhumerus -37.0379 -43.5239 94.1948
lradius 60.9928 -0 0
lwrist 15.8043 0 0
lhand 27.0394 11.7922 -0.0226585
lfingers 7.12502 -0 0
lthumb 51.0331 32.5063 -0.00696729
rclavicle -5.36861e-14 -8.15997e-16 -1.04758e-30
rhumerus -48.793 -26.2452 -54.7073
rradius 82.5111 -0 0
rwrist -24.1527 0 0
rhand -49.6016 -61.0257 -1.38827
rfingers 7.12502 -0 0
rthumb -22.2234 -90.1552 -1.33463
888
root 3.74778 16.5541 30.906 -7.56706 27.5093 -1.786
lfemur -20.1172 26.2637 -18.5981
ltibia 41.9273 -0 0
lfoot -14.1224 0.419006 0.00577814
ltoes -1.0952 0 0
rfemur -67.3707 -29.7323 26.5084
rtibia 111.337 -0 0
rfoot 19.3916 20.0278 -0.0753999
rtoes -6.09922 0 0
lowerback 11.4469 -4.81091 -6.69453
upperback 3.42947 -7.14638 -1.72886
thorax -2.18676 -3.53995 2.81815
lowerneck -7.73455 -4.34024 0.884709
upperneck 5.15295 -6.27526 5.2842
head 3.18317 -2.89164 1.24371
lclavicle -5.92064e-14 -8.06724e-16 -1.20175e-30
lhumerus -38.375 -44.0067 95.7921
lradius 61.3108 -0 0
lwrist 14.915 0 0
lhand 27.0883 11.6702 -0.0144699
lfingers 7.12502 -0 0
lthumb 51.0749 32.3391 -0.00533155
rclavicle -5.92064e-14 -8.06724e-16 -1.20175e-30
rhumerus -48.6258 -24.7503 -57.0599
rradius 85.2125 -0 0
rwrist -23.637 0 0
rhand -48.374 -61.2472 -1.19288
rfingers 7.12502 -0 0
rthumb -21.0394 -90.4528 -1.15136
889
root 3.73128 16.5529 30.9803 -6.92219 27.9934 -1.867
lfemur -20.9504 27.2452 -18.6469
ltibia 42.2743 -0 0
lfoot -14.3775 0.152635 0.00209024
ltoes -0.728272 0 0
rfemur -63.841 -30.1218 23.9781
rtibia 112.048 -0 0
rfoot 18.9347 17.8057 -0.0444709
rtoes -5.4752 0 0
lowerback 10.7242 -4.87572 -6.69073
upperback 3.1192 -7.19027 -1.63323
thorax -2.10232 -3.56237 2.86631
lowerneck -7.71756 -4.5711 0.69431
upperneck 5.17845 -6.5681 5.31469
head 3.20526 -3.03932 1.27114
lclavicle -6.24417e-14 -1.53695e-15 -9.02208e-31
lhumerus -39.7103 -44.3577 97.3571
lradius 61.6022 -0 0
lwrist 14.1565 0 0
lhand 27.1583 11.647 -0.00595753
lfingers 7.12502 -0 0
lthumb 51.1361 32.2613 -0.00296486
rclavicle -6.24417e-14 -1.53695e-15 -9.02208e-31
rhumerus -48.4088 -23.1082 -59.4632
rradius 87.8568 -0 0
rwrist -22.9162 0 0
rhand -46.5087 -60.642 -0.721869
rfingers 7.12502 -0 0
rthumb -19.2404 -89.9059 -0.69897
890
root 3.71818 16.5479 31.0514 -6.32248 28.3277 358.093
lfemur -21.7226 27.984 -18.6884
ltibia 42.6887 0 0
lfoot -14.604 0.0493379 0
ltoes -0.381373 0 0
rfemur -60.4049 -30.057 21.4621
rtibia 112.241 0 0
rfoot 18.5331 15.4272 0
rtoes -4.03696 0 0
lowerback 10.0357 -4.9031 -6.61491
upperback 2.83873 -7.178 -1.55844
thorax -2.0187 -3.55739 2.85392
lowerneck -7.69289 -4.79134 0.495652
upperneck 5.19557 -6.84408 5.32792
head 3.2226 -3.17971 1.29558
lclavicle -6.22693e-14 -3.18055e-15 0
lhumerus -40.9697 -44.5703 98.84
lradius 61.8099 0 0
lwrist 13.5798 0 0
lhand 27.3106 11.7927 0
lfingers 7.12502 0 0
lthumb 51.2736 32.3201 0
rclavicle -6.22693e-14 -3.18055e-15 0
rhumerus -48.1161 -21.3701 -61.8639
rradius 90.3854 0 0
rwrist -22.0301 0 0
rhand -44.006 -59.0633 0
rfingers 7.12502 0 0
rthumb -16.827 -808.354 0
891
root 3.70985 16.5379 31.1202 -5.76278 28.5129 -1.90598
lfemur -22.4606 28.4705 -18.7501
ltibia 43.1921 -0 0
lfoot -14.8198 0.0915132 -0.000313036
ltoes -0.0511361 0 0
rfemur -56.9645 -29.4379 18.9428
rtibia 111.838 -0 0
rfoot 18.1728 12.6851 0.0371894
rtoes -1.69134 0 0
lowerback 9.36158 -4.88893 -6.46569
upperback 2.58418 -7.10494 -1.50379
thorax -1.93114 -3.52236 2.77697
lowerneck -7.65773 -5.01097 0.277494
upperneck 5.19634 -7.11433 5.31552
head 3.23253 -3.31919 1.31558
lclavicle -5.7675e-14 -6.75056e-15 1.82411e-30
lhumerus -42.1897 -44.6385 100.261
lradius 61.9749 -0 0
lwrist 13.2116 0 0
lhand 27.5295 12.1351 0.00358751
lfingers 7.12502 -0 0
lthumb 51.4727 32.5482 0.00309526
rclavicle -5.7675e-14 -6.75056e-15 1.82411e-30
rhumerus -47.7685 -19.4572 -64.3103
rradius 92.8753 -0 0
rwrist -20.77 0 0
rhand -40.3871 -56.011 0.917234
rfingers 7.12502 -0 0
rthumb -13.3323 -85.3242 0.879348
